<svg width="24" height="24" viewBox="0 0 24 24" fill="none" xmlns="http://www.w3.org/2000/svg">
<path d="M0 19.1968V23C0 23.5523 0.447715 24 1 24H4.80318C5.06839 24 5.32275 23.8946 5.51028 23.7071L19.119 10.0984C19.5095 9.70786 19.5095 9.0747 19.119 8.68417L15.3158 4.881C14.9253 4.49047 14.2921 4.49047 13.9016 4.881L0.292893 18.4897C0.105357 18.6772 0 18.9316 0 19.1968Z" fill="#2D3E50"/>
<path d="M18.0755 0.707106L16.881 1.90159C16.4905 2.29211 16.4905 2.92528 16.881 3.3158L20.6842 7.11898C21.0747 7.5095 21.7079 7.5095 22.0984 7.11898L23.2929 5.9245C23.6834 5.53397 23.6834 4.90081 23.2929 4.51028L19.4897 0.707107C19.0992 0.316583 18.466 0.316582 18.0755 0.707106Z" fill="#2D3E50"/>
</svg>
